<svg width="0" height="0" class="hidden">
    <symbol viewBox="0 0 24 24" fill="none" xmlns="http://www.w3.org/2000/svg" id="facebook">
        <path fill-rule="evenodd" clip-rule="evenodd" d="M19.5 3h-15C3.66 3 3 3.66 3 4.5v15c0 .84.66 1.5 1.5 1.5h15c.84 0 1.5-.66 1.5-1.5v-15c0-.84-.66-1.5-1.5-1.5zm-7.448 11.26H9.8v-2.295h2.252V9.957c0-1.636 1.238-3.014 2.815-3.157H17.4v2.296h-2.252a.838.838 0 0 0-.844.86v2.01h2.815v2.295h-2.815V20.2h-2.252v-5.94zm2.877 5.94h4.392c.498 0 .879-.38.879-.879V4.68a.863.863 0 0 0-.878-.879H4.678a.863.863 0 0 0-.879.879v14.64c0 .498.38.879.879.879h6.735v-5.271H9.071v-3.515h2.343V9.95A3.844 3.844 0 0 1 14.9 6.143h3.251v3.514h-2.929c-.175 0-.292.117-.292.293v1.464h2.928v3.515H14.93V20.2z"
              fill="#fff"></path>
    </symbol>
    <symbol viewBox="0 0 24 24" fill="none" xmlns="http://www.w3.org/2000/svg" id="instagram">
        <path fill-rule="evenodd" clip-rule="evenodd" d="M16.032 3H7.967A4.973 4.973 0 0 0 3 7.967v8.066A4.973 4.973 0 0 0 7.967 21h8.066A4.973 4.973 0 0 0 21 16.033V7.967A4.973 4.973 0 0 0 16.032 3zM20 16.358A3.646 3.646 0 0 1 16.358 20H7.642A3.646 3.646 0 0 1 4 16.358V7.642A3.646 3.646 0 0 1 7.642 4h8.716A3.646 3.646 0 0 1 20 7.642v8.716zM7.362 12A4.643 4.643 0 0 1 12 7.362 4.643 4.643 0 0 1 16.638 12 4.643 4.643 0 0 1 12 16.638 4.643 4.643 0 0 1 7.362 12zm9.073-6.166a.803.803 0 0 1 1.13 0 .803.803 0 0 1 0 1.132A.808.808 0 0 1 17 7.2a.806.806 0 0 1-.565-.234.807.807 0 0 1-.235-.566c0-.21.086-.417.235-.566z"
              fill="#fff"></path>
    </symbol>
    <symbol viewBox="0 0 24 24" fill="none" xmlns="http://www.w3.org/2000/svg" id="twitter">
        <path fill-rule="evenodd" clip-rule="evenodd" d="M20.5302 6.09487C20.6525 6.06362 20.8052 6.09487 20.8969 6.1886C20.9885 6.28233 21.0191 6.43856 20.9886 6.56358C20.7136 7.46975 20.1637 8.12596 19.4915 8.46969V8.56342C19.4915 14.5942 15.092 19.5 9.71486 19.5C6.6902 19.5 4.24606 18.9688 3.14618 18.0626C3.02398 17.9376 2.96286 17.7814 3.02398 17.5939C3.08506 17.4377 3.23782 17.3127 3.42114 17.3127C5.22371 17.2814 6.38468 16.844 7.27068 16.3127C5.55976 16.094 4.49043 15.2503 3.94051 13.6567C3.87939 13.5005 3.94051 13.3443 4.06271 13.2505C4.18491 13.1567 4.36823 13.1567 4.49043 13.2192C4.94871 13.5317 5.407 13.5942 5.95692 13.5942C4.79595 12.8756 3.72663 11.6881 3.2989 10.2195C3.26835 10.0633 3.32946 9.87582 3.45167 9.81331C3.60443 9.71959 3.75719 9.75084 3.87939 9.84457C4.21547 10.1258 4.58211 10.3133 5.13203 10.407C3.94051 9.15711 3.20726 7.31352 4.24603 5.28243L4.42935 4.90744L4.7348 5.21992C6.62905 7.25101 8.3705 8.18843 11.5479 8.81338V8.6884C11.5479 6.40735 13.2894 4.5325 15.4586 4.50124C16.314 4.50124 17.5056 5.12619 17.9944 5.40741C18.0061 5.40741 18.0177 5.41197 18.0277 5.41587C18.0438 5.42217 18.0555 5.42673 18.0555 5.40741C18.6666 5.21996 19.3998 4.90748 20.2552 4.5325C20.3775 4.47002 20.5302 4.50128 20.6219 4.59501C20.7136 4.68877 20.7441 4.81375 20.683 4.96999C20.5302 5.40745 20.2858 5.87616 19.9192 6.31362L20.5302 6.09487ZM18.7354 8.23772L18.9133 8.17735C19.4765 7.96612 19.8025 7.51342 20.01 7.12114L18.854 7.51346C18.7058 7.57383 18.528 7.51346 18.4687 7.36256C18.4094 7.21166 18.4391 7.03058 18.5576 6.94005C19.0319 6.5477 19.3875 6.12519 19.6543 5.6725C19.0615 5.91392 18.528 6.12519 18.0834 6.27609C17.9056 6.33643 17.7277 6.30624 17.5499 6.21572L17.5311 6.20529C17.1826 6.01158 16.085 5.40141 15.4158 5.43104C13.6374 5.46123 12.2147 7.00039 12.2147 8.8715V9.71651L11.859 9.65614C8.59857 9.05255 6.79051 8.17735 4.89354 6.27606C4.00434 8.56971 5.84201 10.1692 6.46446 10.6219L7.20544 11.1652H6.28658C5.69378 11.1652 5.04171 11.1048 4.44891 10.8332C5.10101 12.2214 6.43482 13.2475 7.56113 13.5795L7.47223 14.1831C7.23512 14.1831 6.99797 14.1831 6.76087 14.2133C6.13841 14.2434 5.57526 14.2434 5.04175 14.0624C5.63455 15.2092 6.67196 15.692 8.36143 15.692H9.25064L8.50963 16.2353C7.59078 16.9596 6.40517 17.6235 4.36 17.7744C5.33811 18.2573 7.14614 18.71 9.84341 18.71C14.4647 18.71 18.7354 13.999 18.7354 8.75079V8.23772Z" fill="white"/>
        <mask id="mask0" mask-type="alpha" maskUnits="userSpaceOnUse" x="3" y="4" width="18" height="16">
            <path fill-rule="evenodd" clip-rule="evenodd" d="M20.5302 6.09487C20.6525 6.06362 20.8052 6.09487 20.8969 6.1886C20.9885 6.28233 21.0191 6.43856 20.9886 6.56358C20.7136 7.46975 20.1637 8.12596 19.4915 8.46969V8.56342C19.4915 14.5942 15.092 19.5 9.71486 19.5C6.6902 19.5 4.24606 18.9688 3.14618 18.0626C3.02398 17.9376 2.96286 17.7814 3.02398 17.5939C3.08506 17.4377 3.23782 17.3127 3.42114 17.3127C5.22371 17.2814 6.38468 16.844 7.27068 16.3127C5.55976 16.094 4.49043 15.2503 3.94051 13.6567C3.87939 13.5005 3.94051 13.3443 4.06271 13.2505C4.18491 13.1567 4.36823 13.1567 4.49043 13.2192C4.94871 13.5317 5.407 13.5942 5.95692 13.5942C4.79595 12.8756 3.72663 11.6881 3.2989 10.2195C3.26835 10.0633 3.32946 9.87582 3.45167 9.81331C3.60443 9.71959 3.75719 9.75084 3.87939 9.84457C4.21547 10.1258 4.58211 10.3133 5.13203 10.407C3.94051 9.15711 3.20726 7.31352 4.24603 5.28243L4.42935 4.90744L4.7348 5.21992C6.62905 7.25101 8.3705 8.18843 11.5479 8.81338V8.6884C11.5479 6.40735 13.2894 4.5325 15.4586 4.50124C16.314 4.50124 17.5056 5.12619 17.9944 5.40741C18.0061 5.40741 18.0177 5.41197 18.0277 5.41587C18.0438 5.42217 18.0555 5.42673 18.0555 5.40741C18.6666 5.21996 19.3998 4.90748 20.2552 4.5325C20.3775 4.47002 20.5302 4.50128 20.6219 4.59501C20.7136 4.68877 20.7441 4.81375 20.683 4.96999C20.5302 5.40745 20.2858 5.87616 19.9192 6.31362L20.5302 6.09487ZM18.7354 8.23772L18.9133 8.17735C19.4765 7.96612 19.8025 7.51342 20.01 7.12114L18.854 7.51346C18.7058 7.57383 18.528 7.51346 18.4687 7.36256C18.4094 7.21166 18.4391 7.03058 18.5576 6.94005C19.0319 6.5477 19.3875 6.12519 19.6543 5.6725C19.0615 5.91392 18.528 6.12519 18.0834 6.27609C17.9056 6.33643 17.7277 6.30624 17.5499 6.21572L17.5311 6.20529C17.1826 6.01158 16.085 5.40141 15.4158 5.43104C13.6374 5.46123 12.2147 7.00039 12.2147 8.8715V9.71651L11.859 9.65614C8.59857 9.05255 6.79051 8.17735 4.89354 6.27606C4.00434 8.56971 5.84201 10.1692 6.46446 10.6219L7.20544 11.1652H6.28658C5.69378 11.1652 5.04171 11.1048 4.44891 10.8332C5.10101 12.2214 6.43482 13.2475 7.56113 13.5795L7.47223 14.1831C7.23512 14.1831 6.99797 14.1831 6.76087 14.2133C6.13841 14.2434 5.57526 14.2434 5.04175 14.0624C5.63455 15.2092 6.67196 15.692 8.36143 15.692H9.25064L8.50963 16.2353C7.59078 16.9596 6.40517 17.6235 4.36 17.7744C5.33811 18.2573 7.14614 18.71 9.84341 18.71C14.4647 18.71 18.7354 13.999 18.7354 8.75079V8.23772Z" fill="white"/>
        </mask>
        <g mask="url(#mask0)">
        </g>
    </symbol>
</svg>